<svg xmlns="http://www.w3.org/2000/svg" viewBox="0 0 412.42 95.52"><defs><style>.cls-1{fill:#355096;}.cls-2{fill:#303f49;}</style></defs><g id="Layer_2" data-name="Layer 2"><g id="Layer_1-2" data-name="Layer 1"><path class="cls-1" d="M149.76,95.52H0V0H23.08l1.85,4.25c.43,1,.86,2,1.32,2.92A128.22,128.22,0,0,0,74.91,62,128.33,128.33,0,0,0,125,4.25L126.8,0h23ZM69.12,81.36H135.6V15A142.56,142.56,0,0,1,69.12,81.36Zm-55-66.62V81.17A128.54,128.54,0,0,0,60.75,69.65,142.29,142.29,0,0,1,14.16,14.74Z"/><path class="cls-2" d="M187,40.92,184.26,48h-5.82l13-33.1h5.67L210.31,48H204.5l-2.79-7.09Zm7.38-20.57-5.63,15.84H200Z"/><path class="cls-2" d="M214.14,14.91h5.25V48h-5.25Z"/><path class="cls-2" d="M262.89,32.74V48h-5.3V34.11c0-3.22-2.22-5.58-5.1-5.58a5.32,5.32,0,0,0-5.25,5.58V48H242V34.11a5.34,5.34,0,0,0-5.2-5.58,5.28,5.28,0,0,0-5.21,5.58V48h-5.24V24.37h5.15V28.1A8.45,8.45,0,0,1,239,23.8a8,8,0,0,1,7.52,4.92,8.67,8.67,0,0,1,8-4.92C259.39,23.8,262.89,27.68,262.89,32.74Z"/><path class="cls-2" d="M291.07,48h-5.16V44a8.83,8.83,0,0,1-7.9,4.59,8.67,8.67,0,0,1-8.7-8.66V24.37h5.3V38.22a5.61,5.61,0,1,0,11.21,0l-.05-13.85h5.3Z"/><path class="cls-2" d="M304.68,38.74l-1.37,1.56V48h-5.25V14.91h5.25V34.25l10.4-9.88h6.1l-11.16,11L320,48h-6.24Z"/><path class="cls-2" d="M345.63,32.55V48h-5.3V33.87a5.44,5.44,0,0,0-5.48-5.67,5.8,5.8,0,0,0-5.82,6V48h-5.25V14.91H329V27.82c1.23-2.32,4.3-3.92,7.85-3.92A8.42,8.42,0,0,1,345.63,32.55Z"/><path class="cls-2" d="M354.23,43.05l0-14H349.6V24.37h4.68V16.9h5.25v7.47h7V29h-7V42.62a.64.64,0,0,0,.66.66h6.38V48h-7.38A5,5,0,0,1,354.23,43.05Z"/><path class="cls-2" d="M387.09,48V43.76c-1.18,2.93-4.16,4.77-8.32,4.77-5.58,0-8.56-3.12-8.56-7.56,0-6.34,6.86-8.37,16.22-7l-.05-1.51c0-3.17-2.41-4.54-5.29-4.54a8.49,8.49,0,0,0-6.63,3.12l-2.83-3a12.87,12.87,0,0,1,9.88-4.3c5.91,0,10.07,3.88,10.07,9.46V48Zm-11.73-7.38c0,2.46,1.42,4,4.68,4,4,0,6.39-2.31,6.39-6.19V37C379.76,35.91,375.36,37.09,375.36,40.63Z"/><path class="cls-2" d="M412.29,24.13l-.09,5c-1-.09-2-.14-3-.14-4.07,0-6.48,2.46-6.48,6.76V48h-5.25V24.37h5.11v4.25a8.37,8.37,0,0,1,7.57-4.77A8.56,8.56,0,0,1,412.29,24.13Z"/><path class="cls-2" d="M177.38,67.24V64.81h15.41v2.43h-6.36V83.92H183.8V67.24Z"/><path class="cls-2" d="M192.35,77a7.23,7.23,0,0,1,14.45,0,7,7,0,0,1-7.24,7.24A6.87,6.87,0,0,1,192.35,77Zm11.91.06c0-2.92-1.94-5-4.64-5s-4.7,2.05-4.7,5,1.88,5,4.64,5A4.66,4.66,0,0,0,204.26,77.07Z"/><path class="cls-2" d="M222.32,83.92h-2.46V81.49a5.2,5.2,0,0,1-4.67,2.79,5.11,5.11,0,0,1-5.11-5.11v-8.9h2.54v8.08a3.59,3.59,0,1,0,7.18,0V70.27h2.52Z"/><path class="cls-2" d="M234.88,70.16l-.08,2.37c-.55,0-1.1-.08-1.67-.08a3.8,3.8,0,0,0-4,4.13v7.34h-2.51V70.27h2.46v2.56A5,5,0,0,1,233.57,70,4.16,4.16,0,0,1,234.88,70.16Z"/><path class="cls-2" d="M237.39,65.65A1.64,1.64,0,0,1,239,64a1.63,1.63,0,0,1,0,3.25A1.65,1.65,0,0,1,237.39,65.65Zm2.9,4.62V83.92h-2.52V70.27Z"/><path class="cls-2" d="M243.46,81.74l1.17-1.67a6.45,6.45,0,0,0,4.94,2.11c2,0,3-.85,3-2.05,0-1-.63-1.53-2.27-1.91l-2.68-.66C245.07,77,244,75.73,244,73.9c0-2.54,2.05-4.15,5.49-4.15A6.77,6.77,0,0,1,255,71.91l-1.2,1.66a5.71,5.71,0,0,0-4.29-1.72c-1.93,0-3,.74-3,2,0,.93.61,1.47,2.24,1.86l2.65.65c2.71.66,3.75,1.86,3.75,3.69,0,2.59-2.05,4.26-5.6,4.26A7.49,7.49,0,0,1,243.46,81.74Z"/><path class="cls-2" d="M279.32,75.07V83.9h-2.54V75.7a3.33,3.33,0,0,0-3.25-3.49,3.38,3.38,0,0,0-3.36,3.49v8.2h-2.51V75.7a3.32,3.32,0,1,0-6.64,0v8.2h-2.54V70.27H261v2.24a4.92,4.92,0,0,1,4.4-2.57,4.67,4.67,0,0,1,4.43,3,5,5,0,0,1,4.69-3A4.88,4.88,0,0,1,279.32,75.07Z"/><path class="cls-2" d="M298.63,83.92V81.25c-.66,1.8-2.46,3-5,3-3.14,0-4.89-1.75-4.89-4.29,0-3.61,3.93-4.84,9.56-4l0-1c0-2-1.42-2.92-3.3-2.92a4.94,4.94,0,0,0-4,1.94l-1.39-1.42a7,7,0,0,1,5.6-2.54c3.36,0,5.6,2.13,5.6,5.3v8.68Zm-7.38-4.15c0,1.59,1,2.54,3,2.54a3.71,3.71,0,0,0,4.07-4V77.4C294.07,76.71,291.25,77.51,291.25,79.77Z"/><path class="cls-2" d="M316.52,75v8.9H314V75.81a3.59,3.59,0,1,0-7.18,0v8.11h-2.54V70.27h2.48V72.7A5.19,5.19,0,0,1,316.52,75Z"/><path class="cls-2" d="M333.78,83.9h-2.29v-3a5.73,5.73,0,0,1-5.41,3.36c-4.1,0-6.47-2.86-6.47-7.21,0-4.15,2.48-7.07,6.5-7.07a5.53,5.53,0,0,1,5.21,3.3V64.81h2.46ZM331.32,77a4.58,4.58,0,0,0-4.64-4.91c-2.68,0-4.53,2-4.53,4.91s1.85,5,4.58,5S331.32,79.94,331.32,77Z"/><path class="cls-2" d="M345,81.44l0-8.93h-2.78V70.24h2.78V66h2.51v4.26h4.21v2.27h-4.21v8.74a.38.38,0,0,0,.39.38h3.85v2.29h-4.32A2.48,2.48,0,0,1,345,81.44Z"/><path class="cls-2" d="M363.22,70.16l-.08,2.37c-.54,0-1.09-.08-1.66-.08a3.8,3.8,0,0,0-4,4.13v7.34H355V70.27h2.45v2.56A5,5,0,0,1,361.91,70,4.07,4.07,0,0,1,363.22,70.16Z"/><path class="cls-2" d="M374.45,83.92V81.25c-.66,1.8-2.46,3-5,3-3.14,0-4.89-1.75-4.89-4.29,0-3.61,3.93-4.84,9.56-4l0-1c0-2-1.42-2.92-3.3-2.92a5,5,0,0,0-4,1.94l-1.39-1.42a7,7,0,0,1,5.6-2.54c3.36,0,5.6,2.13,5.6,5.3v8.68Zm-7.37-4.15c0,1.59,1,2.54,3,2.54a3.71,3.71,0,0,0,4.07-4V77.4C369.89,76.71,367.08,77.51,367.08,79.77Z"/><path class="cls-2" d="M386.06,83.92H383.3l-5.6-13.65h2.71l4.26,10.59,4.2-10.59h2.71Z"/><path class="cls-2" d="M400.1,82.15A5.56,5.56,0,0,0,404.74,80l1.45,1.48a7.4,7.4,0,0,1-6.2,2.81A7.14,7.14,0,0,1,399.91,70c4.37,0,7,2.84,6.66,7.67h-11.2A4.47,4.47,0,0,0,400.1,82.15ZM395.35,76h8.74a4,4,0,0,0-4.18-4.15A4.4,4.4,0,0,0,395.35,76Z"/><path class="cls-2" d="M409.88,64.81h2.54V83.92h-2.54Z"/></g></g></svg>