<svg xmlns="http://www.w3.org/2000/svg" viewBox="0 0 235.03 192.99"><defs><style>.cls-1{fill:#fff;}</style></defs><g id="Layer_2" data-name="Layer 2"><g id="Layer_1-2" data-name="Layer 1"><path class="cls-1" d="M9.61,149.63l-2.74,7.09H1.06l13-33.1h5.68l13.24,33.1H27.11l-2.79-7.09ZM17,129.06,11.36,144.9H22.62Z"/><path class="cls-1" d="M36.75,123.62H42v33.1H36.75Z"/><path class="cls-1" d="M85.5,141.44v15.28H80.21v-13.9c0-3.22-2.22-5.58-5.11-5.58a5.32,5.32,0,0,0-5.25,5.58v13.9H64.6v-13.9a5.33,5.33,0,0,0-5.2-5.58,5.28,5.28,0,0,0-5.2,5.58v13.9H49V133.08h5.16v3.73a8.41,8.41,0,0,1,7.51-4.3,8,8,0,0,1,7.52,4.92,8.68,8.68,0,0,1,8-4.92C82,132.51,85.5,136.38,85.5,141.44Z"/><path class="cls-1" d="M113.68,156.72h-5.15v-4a8.83,8.83,0,0,1-7.9,4.58,8.66,8.66,0,0,1-8.7-8.65v-15.6h5.3v13.85a5.6,5.6,0,1,0,11.2,0l-.05-13.85h5.3Z"/><path class="cls-1" d="M127.3,147.45,125.92,149v7.71h-5.24v-33.1h5.24V143l10.41-9.88h6.1l-11.16,11,11.35,12.67h-6.24Z"/><path class="cls-1" d="M168.24,141.26v15.46H163V142.58a5.45,5.45,0,0,0-5.49-5.67,5.8,5.8,0,0,0-5.82,6v13.81H146.4v-33.1h5.24v12.91c1.23-2.32,4.31-3.93,7.85-3.93A8.42,8.42,0,0,1,168.24,141.26Z"/><path class="cls-1" d="M176.85,151.75l0-14h-4.68v-4.63h4.68V125.6h5.25v7.48h7v4.63h-7v13.62a.64.64,0,0,0,.66.66h6.39v4.73h-7.38A5,5,0,0,1,176.85,151.75Z"/><path class="cls-1" d="M209.71,156.72v-4.26c-1.19,2.93-4.17,4.78-8.33,4.78-5.58,0-8.56-3.12-8.56-7.57,0-6.33,6.86-8.37,16.22-6.95l0-1.51c0-3.17-2.41-4.54-5.3-4.54a8.45,8.45,0,0,0-6.62,3.12l-2.84-3a12.91,12.91,0,0,1,9.89-4.3c5.91,0,10.07,3.87,10.07,9.45v14.76ZM198,149.34c0,2.46,1.42,4,4.68,4,4,0,6.38-2.32,6.38-6.19V145.7C202.38,144.61,198,145.79,198,149.34Z"/><path class="cls-1" d="M234.91,132.84l-.1,5c-1-.09-2-.14-3-.14-4.07,0-6.48,2.46-6.48,6.76v12.25h-5.25V133.08h5.11v4.25a8.35,8.35,0,0,1,7.56-4.78A8.59,8.59,0,0,1,234.91,132.84Z"/><path class="cls-1" d="M0,175.94v-2.43H15.4v2.43H9v16.69H6.42V175.94Z"/><path class="cls-1" d="M15,185.72a6.87,6.87,0,0,1,7.26-7.07,6.83,6.83,0,0,1,7.19,7.07A7,7,0,0,1,22.18,193,6.87,6.87,0,0,1,15,185.72Zm11.91.06c0-2.93-1.94-5-4.65-5s-4.69,2.05-4.69,5,1.88,5,4.64,5A4.66,4.66,0,0,0,26.88,185.78Z"/><path class="cls-1" d="M44.93,192.63H42.47V190.2A5.2,5.2,0,0,1,37.8,193a5.13,5.13,0,0,1-5.11-5.11V179h2.54v8.09a3.6,3.6,0,1,0,7.19,0V179h2.51Z"/><path class="cls-1" d="M57.49,178.87l-.08,2.37c-.54-.05-1.09-.08-1.66-.08a3.79,3.79,0,0,0-4,4.12v7.35H49.25V179H51.7v2.57a5,5,0,0,1,4.48-2.87A4.12,4.12,0,0,1,57.49,178.87Z"/><path class="cls-1" d="M60,174.36a1.63,1.63,0,0,1,1.64-1.61,1.63,1.63,0,0,1,0,3.25A1.64,1.64,0,0,1,60,174.36ZM62.9,179v13.66H60.39V179Z"/><path class="cls-1" d="M66.07,190.45l1.18-1.67a6.46,6.46,0,0,0,4.94,2.1c2,0,3-.84,3-2,0-1-.63-1.54-2.26-1.92l-2.68-.65c-2.57-.6-3.63-1.83-3.63-3.66,0-2.54,2-4.15,5.49-4.15a6.82,6.82,0,0,1,5.46,2.15l-1.2,1.67a5.71,5.71,0,0,0-4.29-1.72c-1.94,0-3,.74-3,2,0,.92.6,1.47,2.24,1.85L74,185c2.7.65,3.74,1.86,3.74,3.69,0,2.59-2.05,4.26-5.6,4.26A7.5,7.5,0,0,1,66.07,190.45Z"/><path class="cls-1" d="M101.93,183.78v8.82H99.39v-8.19a3.34,3.34,0,0,0-3.25-3.5,3.39,3.39,0,0,0-3.36,3.5v8.19H90.27v-8.19a3.32,3.32,0,1,0-6.64,0v8.19H81.09V179h2.49v2.24a4.92,4.92,0,0,1,4.4-2.56,4.65,4.65,0,0,1,4.42,3,5,5,0,0,1,4.7-3A4.88,4.88,0,0,1,101.93,183.78Z"/><path class="cls-1" d="M121.24,192.63V190c-.65,1.81-2.45,3-5,3-3.14,0-4.89-1.74-4.89-4.28,0-3.61,3.94-4.84,9.56-4l0-1c0-2-1.42-2.92-3.31-2.92a4.92,4.92,0,0,0-4,1.94l-1.4-1.42a7,7,0,0,1,5.6-2.54c3.36,0,5.6,2.13,5.6,5.3v8.68Zm-7.37-4.15c0,1.58,1,2.54,3,2.54a3.71,3.71,0,0,0,4.07-4v-.93C116.68,185.42,113.87,186.21,113.87,188.48Z"/><path class="cls-1" d="M139.13,183.73v8.9h-2.54v-8.11a3.59,3.59,0,1,0-7.18,0v8.11h-2.54V179h2.49v2.44a5.19,5.19,0,0,1,9.77,2.32Z"/><path class="cls-1" d="M156.4,192.6h-2.3v-3a5.72,5.72,0,0,1-5.41,3.36c-4.09,0-6.47-2.87-6.47-7.21,0-4.15,2.49-7.07,6.5-7.07a5.54,5.54,0,0,1,5.22,3.3v-8.44h2.46Zm-2.46-6.88a4.59,4.59,0,0,0-4.65-4.92c-2.67,0-4.53,2-4.53,4.92s1.86,5,4.59,5S153.94,188.64,153.94,185.72Z"/><path class="cls-1" d="M167.65,190.15l0-8.94h-2.79V179h2.79v-4.26h2.51V179h4.21v2.26h-4.21V190a.38.38,0,0,0,.38.39h3.85v2.29h-4.31A2.47,2.47,0,0,1,167.65,190.15Z"/><path class="cls-1" d="M185.84,178.87l-.08,2.37c-.55-.05-1.09-.08-1.67-.08a3.79,3.79,0,0,0-4,4.12v7.35h-2.51V179h2.46v2.57a5,5,0,0,1,4.48-2.87A4.12,4.12,0,0,1,185.84,178.87Z"/><path class="cls-1" d="M197.07,192.63V190c-.66,1.81-2.46,3-5,3-3.15,0-4.89-1.74-4.89-4.28,0-3.61,3.93-4.84,9.56-4l0-1c0-2-1.42-2.92-3.31-2.92a4.92,4.92,0,0,0-4,1.94L188,181.19a7,7,0,0,1,5.59-2.54c3.36,0,5.6,2.13,5.6,5.3v8.68Zm-7.38-4.15c0,1.58,1,2.54,3,2.54a3.72,3.72,0,0,0,4.07-4v-.93C192.5,185.42,189.69,186.21,189.69,188.48Z"/><path class="cls-1" d="M208.67,192.63h-2.75L200.32,179H203l4.26,10.6,4.21-10.6h2.7Z"/><path class="cls-1" d="M222.71,190.86a5.58,5.58,0,0,0,4.65-2.19l1.45,1.48A7.45,7.45,0,0,1,222.6,193a7.15,7.15,0,0,1-.08-14.29c4.37,0,7,2.84,6.67,7.68H218A4.47,4.47,0,0,0,222.71,190.86ZM218,184.74h8.74a4,4,0,0,0-4.18-4.15A4.41,4.41,0,0,0,218,184.74Z"/><path class="cls-1" d="M232.49,173.51H235v19.12h-2.54Z"/><path class="cls-1" d="M193.12,95.52H43.36V0H66.43l1.86,4.25c.43,1,.86,2,1.31,2.92A128.24,128.24,0,0,0,118.27,62a128.33,128.33,0,0,0,50-57.79L170.16,0h23ZM112.48,81.36H179V15A142.56,142.56,0,0,1,112.48,81.36Zm-55-66.62V81.17A128.44,128.44,0,0,0,104.1,69.65,142.26,142.26,0,0,1,57.52,14.74Z"/></g></g></svg>