<svg width="139" height="33" viewBox="0 0 139 33" fill="none" xmlns="http://www.w3.org/2000/svg">
<path d="M62.646 13.9093L61.7281 16.2812H59.7783L64.1334 5.19238H66.0329L70.455 16.2812H68.5086L67.574 13.906L62.646 13.9093ZM65.1184 7.01818L63.2323 12.3247H67.0011L65.1184 7.01818Z" fill="white"/>
<path d="M71.7383 5.19531H73.4971V16.2807H71.7383V5.19531Z" fill="white"/>
<path d="M88.0703 11.1685V16.2807H86.2948V11.6274C86.2948 10.5487 85.551 9.75808 84.5862 9.75808C84.3465 9.76048 84.1097 9.81131 83.8901 9.90751C83.6706 10.0037 83.4727 10.1433 83.3084 10.3179C83.1441 10.4925 83.0169 10.6985 82.9342 10.9236C82.8515 11.1486 82.8152 11.388 82.8274 11.6274V16.2807H81.072V11.6274C81.0828 11.3897 81.046 11.1523 80.9639 10.9289C80.8817 10.7056 80.7558 10.5009 80.5936 10.3268C80.4314 10.1528 80.2361 10.0128 80.0191 9.91513C79.8021 9.81747 79.5678 9.76408 79.3299 9.75808C79.0911 9.76084 78.8552 9.81205 78.6367 9.9086C78.4182 10.0052 78.2216 10.1451 78.0587 10.3198C77.8959 10.4946 77.7702 10.7006 77.6892 10.9253C77.6083 11.1501 77.5738 11.389 77.5879 11.6274V16.2807H75.8291V8.36445H77.5544V9.61403C77.8047 9.16993 78.1703 8.80166 78.6125 8.54811C79.0547 8.29456 79.5573 8.16513 80.067 8.17349C80.6036 8.16435 81.1307 8.31658 81.5799 8.61046C82.0291 8.90433 82.3796 9.32631 82.5862 9.82173C82.8274 9.3186 83.2085 8.89559 83.6837 8.60329C84.159 8.31099 84.7084 8.16178 85.2663 8.17349C86.8978 8.17349 88.0703 9.47333 88.0703 11.1685Z" fill="white"/>
<path d="M97.5105 16.2815H95.7818V14.9414C95.5247 15.418 95.1415 15.8147 94.6742 16.0882C94.2069 16.3618 93.6733 16.5016 93.1319 16.4925C92.3628 16.4943 91.6243 16.1909 91.0785 15.6489C90.5327 15.1069 90.2242 14.3706 90.2207 13.6014V8.36523H91.9962V13.0051C91.9855 13.2584 92.0262 13.5112 92.1157 13.7483C92.2053 13.9855 92.3419 14.202 92.5173 14.385C92.6927 14.568 92.9033 14.7136 93.1365 14.8131C93.3696 14.9126 93.6205 14.9638 93.874 14.9638C94.1275 14.9638 94.3783 14.9126 94.6115 14.8131C94.8446 14.7136 95.0553 14.568 95.2307 14.385C95.4061 14.202 95.5427 13.9855 95.6322 13.7483C95.7218 13.5112 95.7624 13.2584 95.7517 13.0051L95.7349 8.36523H97.5105V16.2815Z" fill="white"/>
<path d="M102.071 13.1786L101.612 13.7012V16.2807H99.8535V5.19531H101.612V11.6744L105.096 8.36449H107.14L103.401 12.0496L107.204 16.2807H105.113L102.071 13.1786Z" fill="white"/>
<path d="M115.789 11.1049V16.2807H114.013V11.5471C114.024 11.3002 113.984 11.0538 113.896 10.8228C113.808 10.5918 113.674 10.3811 113.503 10.2034C113.331 10.0258 113.125 9.88488 112.897 9.78932C112.669 9.69376 112.424 9.64554 112.177 9.64757C111.916 9.64652 111.657 9.69824 111.416 9.79965C111.175 9.90106 110.957 10.0501 110.775 10.2377C110.593 10.4254 110.45 10.6479 110.356 10.8919C110.262 11.1359 110.219 11.3963 110.228 11.6576V16.2807H108.469V5.19531H110.217V9.52027C110.63 8.74305 111.658 8.20369 112.847 8.20369C113.235 8.18744 113.621 8.25106 113.982 8.39058C114.344 8.53011 114.673 8.74254 114.949 9.01468C115.225 9.28681 115.442 9.61282 115.586 9.97241C115.731 10.332 115.8 10.7175 115.789 11.1049Z" fill="white"/>
<path d="M118.67 14.6218V9.93168H117.119V8.36384H118.687V5.86133H120.446V8.36384H122.791V9.91493H120.446V14.4777C120.445 14.507 120.45 14.5362 120.461 14.5634C120.471 14.5907 120.488 14.6154 120.508 14.6362C120.529 14.6569 120.554 14.6731 120.581 14.6839C120.608 14.6947 120.638 14.6998 120.667 14.6988H122.804V16.2801H120.335C119.896 16.2775 119.475 16.1021 119.163 15.7919C118.852 15.4817 118.675 15.0614 118.67 14.6218Z" fill="white"/>
<path d="M129.678 16.2801V14.8563C129.283 15.8412 128.285 16.4576 126.891 16.4576C125.022 16.4576 124.023 15.4124 124.023 13.9216C124.023 11.801 126.322 11.121 129.457 11.5766L129.441 11.0707C129.441 10.0087 128.633 9.54976 127.668 9.54976C127.244 9.54709 126.825 9.6396 126.441 9.82049C126.057 10.0014 125.719 10.266 125.451 10.595L124.499 9.58996C124.914 9.12492 125.425 8.75532 125.996 8.50663C126.567 8.25794 127.186 8.13608 127.809 8.14943C129.789 8.14943 131.183 9.44926 131.183 11.3186V16.2801H129.678ZM125.749 13.8077C125.749 14.6318 126.224 15.1478 127.32 15.1478C128.66 15.1478 129.457 14.3739 129.457 13.0741V12.595C127.223 12.2265 125.749 12.6251 125.749 13.8111V13.8077Z" fill="white"/>
<path d="M138.121 8.28424L138.091 9.95928C137.756 9.92913 137.421 9.91238 137.086 9.91238C135.722 9.91238 134.915 10.7365 134.915 12.177V16.2809H133.156V8.36464H134.868V9.78842C135.096 9.30941 135.456 8.90498 135.905 8.62212C136.354 8.33925 136.874 8.18956 137.404 8.19043C137.646 8.19111 137.887 8.22263 138.121 8.28424Z" fill="white"/>
<path d="M59.4238 22.7266V21.9092H64.5863V22.7266H62.4557V28.3145H61.5746V22.7266H59.4238Z" fill="white"/>
<path d="M64.4389 25.9961C64.4622 25.3698 64.7274 24.7768 65.1787 24.3419C65.6301 23.907 66.2325 23.6641 66.8593 23.6641C67.4861 23.6641 68.0885 23.907 68.5398 24.3419C68.9912 24.7768 69.2564 25.3698 69.2797 25.9961C69.291 26.3177 69.2359 26.6381 69.118 26.9374C69.0001 27.2368 68.8218 27.5086 68.5943 27.7361C68.3668 27.9636 68.0949 28.1419 67.7956 28.2598C67.4962 28.3777 67.1758 28.4328 66.8543 28.4216C66.532 28.4375 66.21 28.3856 65.909 28.2692C65.6081 28.1528 65.3349 27.9746 65.1072 27.7459C64.8796 27.5173 64.7024 27.2434 64.5873 26.942C64.4721 26.6406 64.4216 26.3183 64.4389 25.9961ZM68.4288 26.0162C68.4288 25.038 67.7789 24.3412 66.8744 24.3412C65.9698 24.3412 65.2998 25.0279 65.2998 26.0162C65.2998 27.0045 65.9296 27.6913 66.8543 27.6913C67.07 27.6936 67.284 27.6513 67.4826 27.5668C67.6811 27.4824 67.8601 27.3577 68.008 27.2006C68.156 27.0435 68.2697 26.8574 68.3422 26.6542C68.4146 26.4509 68.4441 26.2348 68.4288 26.0196V26.0162Z" fill="white"/>
<path d="M74.4794 28.3141H73.6553V27.5C73.5062 27.7851 73.2812 28.0233 73.005 28.1882C72.7289 28.3532 72.4124 28.4385 72.0908 28.4347C71.637 28.4338 71.2021 28.2532 70.8813 27.9323C70.5604 27.6114 70.3798 27.1765 70.3789 26.7228V23.7412H71.2298V26.4481C71.2298 26.7671 71.3565 27.073 71.5821 27.2985C71.8076 27.524 72.1135 27.6508 72.4325 27.6508C72.7515 27.6508 73.0574 27.524 73.2829 27.2985C73.5085 27.073 73.6352 26.7671 73.6352 26.4481V23.7412H74.4794V28.3141Z" fill="white"/>
<path d="M78.6871 23.7041L78.6603 24.4981C78.476 24.4981 78.2918 24.4713 78.1008 24.4713C77.9184 24.4609 77.7358 24.49 77.5656 24.5565C77.3954 24.623 77.2415 24.7253 77.1144 24.8566C76.9873 24.9878 76.8899 25.1449 76.8289 25.3172C76.7678 25.4894 76.7446 25.6728 76.7608 25.8548V28.3138H75.9199V23.7409H76.744V24.5986C76.8805 24.3153 77.094 24.0761 77.36 23.9085C77.626 23.7408 77.9338 23.6514 78.2482 23.6505C78.3965 23.6447 78.5446 23.6628 78.6871 23.7041Z" fill="white"/>
<path d="M79.5274 22.1934C79.5264 22.0488 79.5826 21.9097 79.6835 21.8062C79.7845 21.7028 79.9222 21.6433 80.0667 21.6406C80.2037 21.6514 80.3316 21.7134 80.4249 21.8143C80.5182 21.9152 80.57 22.0476 80.57 22.185C80.57 22.3224 80.5182 22.4548 80.4249 22.5557C80.3316 22.6566 80.2037 22.7186 80.0667 22.7294C79.9253 22.726 79.7906 22.6686 79.6902 22.5689C79.5899 22.4692 79.5316 22.3348 79.5274 22.1934ZM80.4989 23.7411V28.314H79.658V23.7411H80.4989Z" fill="white"/>
<path d="M81.5605 27.5834L81.9525 27.0239C82.1614 27.2537 82.4173 27.4358 82.7029 27.5578C82.9885 27.6798 83.297 27.7388 83.6074 27.7308C84.2775 27.7308 84.6125 27.446 84.6125 27.044C84.6125 26.709 84.4014 26.5314 83.852 26.4008L82.9542 26.183C82.0999 25.9954 81.7414 25.57 81.7414 24.9569C81.7414 24.106 82.4282 23.5666 83.5806 23.5666C83.923 23.5396 84.2671 23.5907 84.5869 23.716C84.9066 23.8414 85.1937 24.0377 85.4265 24.2902L85.0245 24.8463C84.8384 24.6554 84.6143 24.5055 84.3668 24.4063C84.1193 24.3071 83.8538 24.2607 83.5873 24.2701C82.9408 24.2701 82.6024 24.518 82.6024 24.9401C82.6024 25.2517 82.8034 25.4326 83.3495 25.5599L84.2373 25.781C85.1451 26.0021 85.4935 26.4041 85.4935 27.0172C85.4935 27.8849 84.8068 28.4443 83.6175 28.4443C83.2315 28.4691 82.845 28.4042 82.4881 28.2549C82.1313 28.1055 81.8138 27.8757 81.5605 27.5834Z" fill="white"/>
<path d="M93.5743 25.3489V28.307H92.7234V25.5599C92.7306 25.4112 92.708 25.2625 92.6568 25.1227C92.6056 24.9829 92.527 24.8547 92.4256 24.7458C92.3241 24.6368 92.2018 24.5492 92.066 24.4883C91.9302 24.4273 91.7835 24.3941 91.6346 24.3907C91.4834 24.3915 91.3338 24.4227 91.1947 24.4823C91.0557 24.5419 90.93 24.6287 90.825 24.7377C90.7201 24.8467 90.6381 24.9756 90.5838 25.1168C90.5295 25.258 90.5041 25.4087 90.509 25.5599V28.307H89.6681V25.5599C89.6681 25.2649 89.551 24.982 89.3424 24.7734C89.1338 24.5649 88.8509 24.4477 88.5559 24.4477C88.2609 24.4477 87.978 24.5649 87.7695 24.7734C87.5609 24.982 87.4437 25.2649 87.4437 25.5599V28.307H86.5928V23.7408H87.437V24.4912C87.5807 24.2268 87.794 24.0068 88.0539 23.8551C88.3137 23.7033 88.6101 23.6255 88.911 23.6303C89.2318 23.6246 89.5465 23.7181 89.8121 23.898C90.0777 24.0778 90.2813 24.3353 90.3951 24.6353C90.5279 24.3309 90.7481 24.0728 91.0279 23.8939C91.3076 23.7149 91.6343 23.6232 91.9663 23.6303C92.186 23.6336 92.4027 23.6811 92.6036 23.7701C92.8044 23.859 92.9853 23.9875 93.1354 24.1479C93.2855 24.3084 93.4017 24.4974 93.4772 24.7037C93.5526 24.91 93.5856 25.1295 93.5743 25.3489Z" fill="white"/>
<path d="M100.044 28.3138V27.4194C99.8226 28.0224 99.2196 28.4244 98.3687 28.4244C97.3167 28.4244 96.7305 27.8381 96.7305 26.9872C96.7305 25.7778 98.0471 25.3658 99.9331 25.6472V25.3122C99.9331 24.6422 99.4574 24.3339 98.8276 24.3339C98.569 24.33 98.3131 24.3868 98.0804 24.4996C97.8477 24.6125 97.6446 24.7784 97.4876 24.9839L97.0219 24.5082C97.2492 24.2329 97.5364 24.0131 97.8615 23.8657C98.1866 23.7182 98.5411 23.6469 98.898 23.6572C100.024 23.6572 100.774 24.3708 100.774 25.4328V28.3406L100.044 28.3138ZM97.5713 26.9236C97.5713 27.4562 97.9064 27.7745 98.5764 27.7745C98.7579 27.7928 98.9413 27.771 99.1135 27.7104C99.2856 27.6499 99.4423 27.5522 99.5725 27.4243C99.7026 27.2964 99.803 27.1414 99.8665 26.9703C99.93 26.7993 99.955 26.6163 99.9399 26.4344V26.1296C98.5161 25.8984 97.5713 26.1631 97.5713 26.9236Z" fill="white"/>
<path d="M106.037 25.3252V28.3068H105.193V25.5966C105.193 25.2776 105.066 24.9717 104.841 24.7462C104.615 24.5206 104.309 24.3939 103.99 24.3939C103.671 24.3939 103.365 24.5206 103.14 24.7462C102.914 24.9717 102.787 25.2776 102.787 25.5966V28.3135H101.937V23.7407H102.767V24.5547C102.948 24.2174 103.236 23.9494 103.585 23.7921C103.934 23.6349 104.325 23.5972 104.698 23.685C105.071 23.7728 105.404 23.9812 105.646 24.2778C105.888 24.5744 106.026 24.9426 106.037 25.3252Z" fill="white"/>
<path d="M111.819 28.3078H111.052V27.3028C110.895 27.6487 110.639 27.9402 110.317 28.1406C109.994 28.341 109.619 28.4411 109.24 28.4284C107.866 28.4284 107.072 27.4703 107.072 26.013C107.072 24.6227 107.903 23.6445 109.25 23.6445C109.618 23.6346 109.98 23.7345 110.291 23.9314C110.602 24.1283 110.847 24.4133 110.995 24.75V21.9092H111.819V28.3078ZM110.995 25.9963C111.011 25.784 110.982 25.5708 110.91 25.3703C110.839 25.1698 110.726 24.9864 110.58 24.8317C110.434 24.677 110.257 24.5544 110.061 24.4717C109.865 24.389 109.654 24.348 109.441 24.3514C108.543 24.3514 107.923 25.0214 107.923 25.9963C107.923 26.9712 108.543 27.6713 109.458 27.6713C110.372 27.6713 110.995 26.9812 110.995 25.9963Z" fill="white"/>
<path d="M115.578 27.4831V24.4915H114.646V23.731H115.578V22.3105H116.419V23.7377H117.829V24.4982H116.419V27.4261C116.419 27.4431 116.422 27.46 116.429 27.4756C116.435 27.4913 116.445 27.5055 116.457 27.5173C116.469 27.5292 116.484 27.5385 116.5 27.5447C116.515 27.5509 116.532 27.5539 116.549 27.5534H117.839V28.3206H116.392C116.173 28.3162 115.965 28.2258 115.813 28.069C115.66 27.9122 115.576 27.7017 115.578 27.4831Z" fill="white"/>
<path d="M121.685 23.7041L121.655 24.4981C121.474 24.4981 121.29 24.4713 121.099 24.4713C120.916 24.4609 120.734 24.49 120.563 24.5565C120.393 24.623 120.239 24.7253 120.112 24.8566C119.985 24.9879 119.888 25.1449 119.827 25.3172C119.766 25.4895 119.742 25.6728 119.759 25.8548V28.3138H118.928V23.7409H119.752V24.5986C119.885 24.3158 120.096 24.0767 120.36 23.9089C120.624 23.7412 120.93 23.6515 121.243 23.6505C121.392 23.6446 121.541 23.6627 121.685 23.7041Z" fill="white"/>
<path d="M125.444 28.3138V27.4194C125.226 28.0224 124.62 28.4244 123.769 28.4244C122.717 28.4244 122.131 27.8381 122.131 26.9872C122.131 25.7778 123.447 25.3658 125.334 25.6472V25.3122C125.334 24.6422 124.858 24.3339 124.228 24.3339C123.97 24.3316 123.714 24.389 123.482 24.5018C123.249 24.6145 123.046 24.7795 122.888 24.9839L122.422 24.5082C122.65 24.2329 122.937 24.0131 123.262 23.8657C123.587 23.7182 123.942 23.6469 124.298 23.6572C125.424 23.6572 126.174 24.3708 126.174 25.4328V28.3406L125.444 28.3138ZM122.975 26.9236C122.975 27.4562 123.31 27.7745 123.98 27.7745C124.162 27.7928 124.345 27.771 124.517 27.7104C124.689 27.6499 124.846 27.5522 124.976 27.4243C125.106 27.2964 125.207 27.1414 125.27 26.9703C125.334 26.7993 125.359 26.6163 125.344 26.4344V26.1296C123.916 25.8984 122.975 26.1631 122.975 26.9236Z" fill="white"/>
<path d="M129.334 28.3141H128.409L126.533 23.7412H127.441L128.868 27.289L130.275 23.7412H131.183L129.334 28.3141Z" fill="white"/>
<path d="M134.037 27.7217C134.335 27.7348 134.631 27.6762 134.902 27.5509C135.172 27.4256 135.409 27.2371 135.591 27.0015L136.077 27.4973C135.831 27.8092 135.515 28.0575 135.153 28.2213C134.792 28.3852 134.396 28.4597 134 28.4386C133.365 28.4422 132.755 28.1934 132.303 27.747C131.852 27.3007 131.596 26.6932 131.593 26.0584C131.589 25.4236 131.838 24.8133 132.284 24.3619C132.731 23.9105 133.338 23.6549 133.973 23.6514C135.437 23.6514 136.318 24.6028 136.204 26.2209H132.452C132.451 26.4254 132.492 26.6278 132.573 26.8158C132.653 27.0038 132.771 27.1734 132.92 27.314C133.068 27.4546 133.244 27.5633 133.436 27.6335C133.628 27.7036 133.833 27.7336 134.037 27.7217ZM132.445 25.6614H135.373C135.381 25.4761 135.349 25.2913 135.281 25.1187C135.213 24.9461 135.11 24.7895 134.978 24.6588C134.847 24.5281 134.69 24.4262 134.516 24.3595C134.343 24.2927 134.158 24.2626 133.973 24.2711C133.587 24.2573 133.211 24.3951 132.926 24.6549C132.64 24.9148 132.468 25.276 132.445 25.6614Z" fill="white"/>
<path d="M137.312 21.9092H138.163V28.3145H137.312V21.9092Z" fill="white"/>
<path d="M50.1709 32.2002H0V0.200195H7.73199L8.35176 1.62398C8.49581 1.95899 8.63987 2.294 8.79397 2.60221C12.3244 10.181 17.9898 16.5648 25.0955 20.9707C32.5245 16.3763 38.3778 9.62787 41.876 1.62398L42.4791 0.200195H50.1843L50.1709 32.2002ZM23.1558 27.4565H45.4271V5.22532C40.728 14.9389 32.8778 22.7749 23.1558 27.4565ZM4.73032 5.13822V27.3928C10.1337 27.0993 15.4334 25.7901 20.3518 23.5335C13.6579 18.8415 8.28304 12.5069 4.74372 5.13822H4.73032Z" fill="white"/>
</svg>
